<?xml version="1.0" encoding="utf-8"?>
<!-- Generator: Adobe Illustrator 19.1.0, SVG Export Plug-In . SVG Version: 6.00 Build 0)  -->
<svg version="1.1" id="Layer_1" xmlns="http://www.w3.org/2000/svg" xmlns:xlink="http://www.w3.org/1999/xlink" x="0px" y="0px"
	 viewBox="-381 370 100 125" style="enable-background:new -381 370 100 125;" xml:space="preserve">
<style type="text/css">
	.st0{fill:#CCCCCC;}
</style>
<g>
	<g>
		<path class="st0" d="M-337.1,378.4c-0.3,0-0.7-0.1-0.9-0.3c-0.6-0.5-0.7-1.4-0.2-2l2.6-3.1c0.2-0.3,0.6-0.5,1-0.5l4-0.3
			c0.8-0.1,1.5,0.5,1.5,1.3c0.1,0.8-0.5,1.5-1.3,1.5l-3.4,0.3l-2.2,2.6C-336.3,378.2-336.7,378.4-337.1,378.4L-337.1,378.4z"/>
	</g>
	<g>
		<path class="st0" d="M-323.9,378.4c-0.4,0-0.8-0.2-1.1-0.5l-2.2-2.6l-3.4-0.3c-0.8-0.1-1.4-0.7-1.3-1.5c0.1-0.8,0.7-1.4,1.5-1.3
			l4,0.3c0.4,0,0.7,0.2,1,0.5l2.6,3.1c0.5,0.6,0.4,1.5-0.2,2C-323.3,378.3-323.6,378.4-323.9,378.4L-323.9,378.4z"/>
	</g>
</g>
<g>
	<path class="st0" d="M-327.6,426.2c-0.3,0-0.5-0.1-0.8-0.2c-0.7-0.4-0.8-1.3-0.4-2c0.2-0.3,5.6-8.4,16.6-9c0.8,0,1.4,0.6,1.5,1.3
		c0,0.8-0.6,1.4-1.3,1.5c-9.5,0.5-14.3,7.7-14.4,7.7C-326.7,426-327.2,426.2-327.6,426.2L-327.6,426.2z"/>
</g>
<g>
	<g>
		<path class="st0" d="M-321.2,424.8c-1.6,0-2.9-1.3-3.5-2.5c0-0.1-0.1-0.2-0.1-0.3c0-0.3,0.1-0.6,0.2-0.8c0.1-0.1,2.9-2.9,8-3.8
			c0.4-0.1,0.8,0.1,1,0.5l0.6,1.3c0.3,0.7,0.4,1.6,0.1,2.3c-0.3,0.8-0.8,1.4-1.6,1.7c0,0-0.1,0-0.1,0l-4.1,1.3c0,0-0.1,0-0.1,0
			C-320.9,424.8-321,424.8-321.2,424.8L-321.2,424.8z"/>
	</g>
</g>
<g>
	<path class="st0" d="M-333.7,426.2c-0.5,0-0.9-0.2-1.2-0.6l0,0c0-0.1-4.9-7.2-14.4-7.7c-0.8,0-1.4-0.7-1.3-1.5s0.7-1.4,1.5-1.3
		c11,0.6,16.4,8.7,16.6,9c0.4,0.7,0.2,1.5-0.4,2C-333.1,426.1-333.4,426.2-333.7,426.2L-333.7,426.2z"/>
</g>
<g>
	<g>
		<path class="st0" d="M-340.1,424.8c-0.2,0-0.3,0-0.5,0c0,0-0.1,0-0.1,0l-4.1-1.3c0,0-0.1,0-0.1,0c-0.7-0.3-1.3-1-1.6-1.7
			c-0.3-0.8-0.2-1.6,0.1-2.3l0.6-1.3c0.2-0.4,0.6-0.6,1-0.5c5.1,0.9,7.9,3.7,8,3.8c0.2,0.2,0.3,0.5,0.2,0.8c0,0.1,0,0.2-0.1,0.3
			C-337.2,423.5-338.5,424.8-340.1,424.8L-340.1,424.8z"/>
	</g>
</g>
<path class="st0" d="M-294.6,431.6c0-0.2,0-0.3-0.1-0.5v-33.8c0-6.3-3.4-12.3-9.6-17.1c-5.5-4.3-12.6-6.8-19-6.8h-15.3
	c-6.4,0-13.5,2.5-19,6.8c-6.2,4.7-9.6,10.8-9.6,17.1v34.3c0,0.2,0,0.3,0.1,0.5c0.1,7,2.2,13.4,5.7,18.9l-0.3,3.3
	c0,0.4,0.1,0.7,0.3,1l3.6,4.2c0,0,0.1,0.1,0.1,0.1c0,0,0,0,0,0l4.2,3.6c0.3,0.2,0.6,0.3,0.9,0.3c0,0,0.1,0,0.1,0l4.1-0.3
	c5.2,2.8,11.1,4.5,17.4,4.5c6.3,0,12.2-1.6,17.3-4.4l3.9,0.3c0,0,0.1,0,0.1,0c0.3,0,0.7-0.1,0.9-0.3l4.2-3.6c0,0,0,0,0,0
	c0,0,0.1-0.1,0.1-0.1l3.6-4.2c0.2-0.3,0.4-0.7,0.3-1l-0.2-3C-296.8,445.7-294.6,438.9-294.6,431.6z M-299.4,397.3v25.6
	c-0.1,0.1-0.2,0.3-0.2,0.4c0,0.1-2,4.7-5.1,9.7l-0.6,0c-0.4,0-0.7,0.1-1,0.3l-4.2,3.6c0,0,0,0.1-0.1,0.1c0,0-0.1,0-0.1,0.1l-3.6,4.2
	c-0.2,0.3-0.4,0.7-0.3,1l0,0.5l-2.7-3.1c0,0-0.1,0-0.1-0.1c0,0,0-0.1-0.1-0.1l-3.9-3.3l-5.5-9.5c0.6-10.3,1.9-30.9,3.2-48.5h0.3
	C-312.5,378.1-299.4,387-299.4,397.3z M-338.5,378.1h0.7c0.4,6.7,2.3,34.7,3,48.2l-6.4,11l-2.5,2.1c0,0,0,0.1-0.1,0.1
	c0,0-0.1,0-0.1,0.1l-3,3.5l0.1-0.9c0-0.4-0.1-0.7-0.3-1l-3.6-4.2c0,0-0.1,0-0.1-0.1c0,0,0-0.1-0.1-0.1l-4.2-3.6
	c-0.3-0.2-0.7-0.4-1-0.3l-1.2,0.1c-2-2.9-3.8-5.8-5-8v-27.7C-362.4,387-349.3,378.1-338.5,378.1z"/>
</svg>
