<?xml version="1.0" encoding="utf-8"?>
<!-- Generator: Adobe Illustrator 19.1.0, SVG Export Plug-In . SVG Version: 6.00 Build 0)  -->
<svg version="1.1" id="Layer_1" xmlns="http://www.w3.org/2000/svg" xmlns:xlink="http://www.w3.org/1999/xlink" x="0px" y="0px"
	 viewBox="-381 370 100 125" style="enable-background:new -381 370 100 125;" xml:space="preserve">
<style type="text/css">
	.st0{fill:#CCCCCC;}
</style>
<path class="st0" d="M-301.9,451.2c0,0-25.8-3.6-28.2,17.4c0,0-0.6-19.8-29.5-17.4c0,0,3-12.6-20.4-12.6l31.9-15.6l3-51.1l2.4,6
	c0,0,12.6-3,24.7,0l2.4-6.6l3.6,52.3l30.1,15C-282,438.6-303,436.8-301.9,451.2z M-342.7,395.3l1.8,3.6l6.6,0.6L-342.7,395.3z
	 M-326.5,399.6l6.6-0.6l1.8-3.6L-326.5,399.6z M-316.9,403.8l-13.2,4.2l-13.8-4.2v13.8l7.2,7.2h12l7.8-7.2V403.8z M-336.7,412.2
	c0,0,5.4-2.5,10.8-0.6C-325.9,411.6-331.6,411.1-336.7,412.2z"/>
</svg>
