<?xml version="1.0" encoding="utf-8"?>
<!-- Generator: Adobe Illustrator 19.1.0, SVG Export Plug-In . SVG Version: 6.00 Build 0)  -->
<svg version="1.1" id="Layer_1" xmlns="http://www.w3.org/2000/svg" xmlns:xlink="http://www.w3.org/1999/xlink" x="0px" y="0px"
	 viewBox="-381 370 100 125" style="enable-background:new -381 370 100 125;" xml:space="preserve">
<style type="text/css">
	.st0{fill:none;stroke:#CCCCCC;stroke-width:0.7995;stroke-linecap:round;stroke-linejoin:round;stroke-miterlimit:10;}
</style>
<g>
	<g>
		<path class="st0" d="M-325,419.6v-0.9c0-1.5-1.1-2.8-2.6-3.1c-1.1-0.2-2.2-0.3-3.4-0.3s-2.3,0.1-3.4,0.3c-1.5,0.3-2.6,1.6-2.6,3.1
			v0.9"/>
		<line class="st0" x1="-331" y1="411.2" x2="-331" y2="414.9"/>
		<path class="st0" d="M-333.6,408.6l1.6-2.1c0.5-0.7,1.5-0.7,2,0l1.6,2.1c0.4,0.6,0.3,1.4-0.3,1.8l-0.3,0.2
			c-0.1,0.1-0.2-0.1-0.3-0.2c-0.2-0.3-0.5-0.4-0.8-0.2l-0.6,0.4c-0.2,0.1-0.5,0.1-0.7,0l-0.5-0.3c-0.3-0.2-0.6-0.1-0.8,0.2
			c-0.1,0.2-0.2,0.3-0.3,0.2l-0.3-0.2C-333.9,410-334.1,409.1-333.6,408.6z"/>
		<path class="st0" d="M-331,405.9c0.2,0.1,1-13.2,5.8-20.7c0.3-0.4,0-1.1-0.4-1.5c-1-0.9-2.9-2.3-5.4-2.3c-2.5,0-4.4,1.4-5.4,2.3
			c-0.4,0.4-0.6,1.1-0.4,1.5C-332,392.7-331,405.9-331,405.9z"/>
		<path class="st0" d="M-335.1,417.5c1.2,0.7,2.6,1.1,4.1,1.1s3-0.4,4.1-1.1"/>
		<path class="st0" d="M-336.2,443c0,0,5.3-5.6,4.1-10.9c-0.9-3.6-2.1-7.6-1-10"/>
		<path class="st0" d="M-332.8,443c0,0,2.1-0.6,1.8-5.8"/>
		<path class="st0" d="M-329.5,443c0,0,0.9-0.5,0.9-2"/>
		<path class="st0" d="M-325.3,422.1h-11.4c-1.7,0-3.1-1.4-3.1-3.1v-2c0-3.4,2.8-6.2,6.2-6.2h5.1c3.4,0,6.2,2.8,6.2,6.2v2
			C-322.2,420.7-323.6,422.1-325.3,422.1z"/>
		<path class="st0" d="M-336,392.7c-0.9-3-2.2-4.9-5-6.1"/>
		<path class="st0" d="M-326.2,394.6c0,0,1.3-4.6,5.4-7.7"/>
		<path class="st0" d="M-333.4,387.7c0,0-0.6-2.4-2.1-4.2"/>
		<g>
			<g>
				<circle class="st0" cx="-325" cy="405.7" r="0.7"/>
				<ellipse class="st0" cx="-325" cy="405.7" rx="2.4" ry="1.2"/>
			</g>
			<g>
				<circle class="st0" cx="-337" cy="405.7" r="0.7"/>
				<ellipse class="st0" cx="-337" cy="405.7" rx="2.4" ry="1.2"/>
			</g>
		</g>
		<g>
			<path class="st0" d="M-337.1,384.4c0,0-7.3,2.7-8.5,8.2c-1.2,5.6-1.8,9.3-3.7,15.1c-1.9,5.9-2.1,20.2,0.6,30.8
				c2.7,10.6,4.7,14.7,3.2,18.4c2.9-0.9,5.1-12.7,5.4-15c0.3-2.3,4.4,15.4,8.2,16.7c4.3-4.8,5.4-11.2,5.8-14.1c1.6,6.3,2.4,7.4,2,11
				c0,0,3.8-3.7,3-8.9c-0.8-5.2-2.6-7.5-1.4-11.8"/>
			<path class="st0" d="M-324.9,384.4c0,0,7.3,2.7,8.5,8.2c1.2,5.6,1.8,9.3,3.7,15.1c1.9,5.9,2.1,20.2-0.6,30.8
				c-2.7,10.6-4.7,14.7-3.2,18.4c0,0-3.7-1.6-4.5-6.6"/>
		</g>
		<path class="st0" d="M-337.1,423.5c0,0-4.8,4.5-2.9,8"/>
		<path class="st0" d="M-326,423.5c0,0,4.8,4.5,2.9,8"/>
		<path class="st0" d="M-326.8,427.6c0.2,0.2,2.5,3.7-0.1,7.4"/>
		<path class="st0" d="M-336.1,427.6c-0.2,0.2-2.5,3.7,0.1,7.4"/>
		<g>
			<path class="st0" d="M-323.8,407c0,0,1.9,0.6,3.1,2.1"/>
			<path class="st0" d="M-338.2,407c0,0-1.9,0.6-3.1,2.1"/>
		</g>
		<g>
			<path class="st0" d="M-321.6,412c0,0,6.8,4.1,3.6,21.3"/>
			<path class="st0" d="M-340.4,412c0,0-6.8,4.1-3.6,21.3"/>
		</g>
		<g>
			<g>
				<path class="st0" d="M-312,410.8c0,0,4.7,6.4,17.2,11.2"/>
				<path class="st0" d="M-311.3,423.1c0,0,15-7.7,24.7,5.1"/>
			</g>
			<g>
				<path class="st0" d="M-350,410.8c0,0-4.7,6.4-17.2,11.2"/>
				<path class="st0" d="M-350.7,423.1c0,0-15-7.7-24.7,5.1"/>
			</g>
		</g>
		<polyline class="st0" points="-332.4,404.3 -331.2,402.8 -329.1,404.7 		"/>
		<g>
			<path class="st0" d="M-327.1,402.2c0,0,6.8-13,11.9-2.5"/>
			<path class="st0" d="M-334.9,402.2c0,0-6.8-13-11.9-2.5"/>
		</g>
		<g>
			<path class="st0" d="M-322.5,405.2c0,0,2.5-0.6,5.3,1"/>
			<path class="st0" d="M-339.5,405.2c0,0-2.5-0.6-5.3,1"/>
		</g>
		<path class="st0" d="M-342.6,408.8c0,0-3,2.2-7.8,10.6"/>
		<path class="st0" d="M-319.5,409c0,0,3.1,2,6.1,5.5"/>
		<path class="st0" d="M-318.3,412.7c0,0,4.6,4.8,6.6,12.9"/>
		<path class="st0" d="M-332.6,401.2c0,0-4-7.8-9.1-9.4"/>
		<path class="st0" d="M-330.8,388.6c0,0-0.1,8.6-0.1,9.5"/>
		<path class="st0" d="M-342.6,425.1c0,0-1.6,2.8,0.2,5.8c1.7,3.1,2.5,5.5,1,9c-1.5,3.5-2.1,6.1-2,7.8"/>
		<path class="st0" d="M-333.6,451c0.2,0.2,2.7,0.3,2,4.5c-0.5,2.8-0.2,3.1-0.2,3.1"/>
		<path class="st0" d="M-329.3,449.7c0,0-0.4,1.9,0.9,3.1"/>
		<path class="st0" d="M-315.6,429.7c0,0,0.5,2.1-0.6,4.8c-1.1,2.7-2.8,6-1.4,8.4"/>
		<g>
			<g>
				<path class="st0" d="M-354,423.9c0,0-10.6-3.3-19.2,3.8"/>
				<path class="st0" d="M-357.9,424.7c0,0-4.1-0.7-8.1,1"/>
				<path class="st0" d="M-352.7,424.4c-0.2,0.1-3.6,1.4-4.9,3.4"/>
				<path class="st0" d="M-350.5,414c0,0-3.7,3.9-6.9,4.9"/>
				<path class="st0" d="M-356.6,421c0,0,2.7-0.6,3.8-1.7"/>
			</g>
			<g>
				<path class="st0" d="M-308,423.9c0,0,10.6-3.3,19.2,3.8"/>
				<path class="st0" d="M-304.1,424.7c0,0,4.1-0.7,8.1,1"/>
				<path class="st0" d="M-309.3,424.4c0.2,0.1,3.6,1.4,4.9,3.4"/>
				<path class="st0" d="M-311.5,414c0,0,3.7,3.9,6.9,4.9"/>
				<path class="st0" d="M-305.4,421c0,0-2.7-0.6-3.8-1.7"/>
			</g>
		</g>
	</g>
</g>
</svg>
