<?xml version="1.0" encoding="utf-8"?>
<!-- Generator: Adobe Illustrator 19.1.0, SVG Export Plug-In . SVG Version: 6.00 Build 0)  -->
<svg version="1.1" id="Layer_1" xmlns="http://www.w3.org/2000/svg" xmlns:xlink="http://www.w3.org/1999/xlink" x="0px" y="0px"
	 viewBox="-381 370 100 125" style="enable-background:new -381 370 100 125;" xml:space="preserve">
<style type="text/css">
	.st0{fill:#CCCCCC;}
</style>
<path class="st0" d="M-331.1,374.8c-24.8,0-44.9,20.1-44.9,44.9c0,24.8,20.1,44.9,44.9,44.9c24.8,0,44.9-20.1,44.9-44.9
	C-286.2,394.9-306.3,374.8-331.1,374.8z M-331.1,445.2c-9.8,0-18.2-5.9-21.8-14.3c5.9,4.9,13.5,7.9,21.8,7.9c8.3,0,15.9-3,21.8-7.9
	C-313,439.3-321.4,445.2-331.1,445.2z M-295.7,407.4c-2,6.4-0.3,17.5-15.3,16.2c-9.8-0.9-12.7-3.6-17.3-15.4c-0.4-1-0.7-2.7-2.9-2.6
	c-1.3,0-2.4,0.3-2.8,2.5c-0.7,4.2-6.4,15.5-18,15.5c-10.2,0-14.1-5.3-14.5-17c-0.1-1.4-1.3-1.7-2.1-1.7l-0.8-5.1
	c12.2-2.8,22-1.8,32.9,0.7c1.6,0.4,3.3,0.8,5.1,0.9c3,0.1,6.4-0.7,9.3-1.4c11.5-2.9,20.5-1.4,29.2,0.5l-0.6,5.1
	C-294.8,405.5-295.3,406.2-295.7,407.4z"/>
</svg>
