<?xml version="1.0" encoding="utf-8"?>
<!-- Generator: Adobe Illustrator 19.1.0, SVG Export Plug-In . SVG Version: 6.00 Build 0)  -->
<svg version="1.1" id="Layer_1" xmlns="http://www.w3.org/2000/svg" xmlns:xlink="http://www.w3.org/1999/xlink" x="0px" y="0px"
	 viewBox="-407 403 48 60" style="enable-background:new -407 403 48 60;" xml:space="preserve">
<style type="text/css">
	.st0{fill:#CCCCCC;}
</style>
<path class="st0" d="M-383,403.5L-383,403.5c-13,0-23.5,10.6-23.5,23.6v22.7c0,0.7,0.8,1,1.2,0.5l4.9-4.9c0.3-0.3,0.7-0.3,1,0
	l3.2,3.2c0.3,0.3,0.7,0.3,1,0l3.2-3.2c0.3-0.3,0.7-0.3,1,0l3.2,3.2c0.3,0.3,0.7,0.3,1,0l3.2-3.2c0.3-0.3,0.7-0.3,1,0l3.2,3.2
	c0.3,0.3,0.7,0.3,1,0l3.2-3.2c0.3-0.3,0.7-0.3,1,0l3.2,3.2c0.3,0.3,0.7,0.3,1,0l3.2-3.2c0.3-0.3,0.7-0.3,1,0l4.9,4.9
	c0.5,0.5,1.2,0.1,1.2-0.5v-22.7C-359.5,414.1-370,403.5-383,403.5z M-394.8,434.3c-2.3,0-4.2-3.1-4.2-7c0-3.9,1.9-7,4.2-7
	c2.3,0,4.2,3.1,4.2,7C-390.5,431.2-392.5,434.3-394.8,434.3z M-371.2,434.3c-2.3,0-4.2-3.1-4.2-7c0-3.9,1.9-7,4.2-7
	c2.3,0,4.2,3.1,4.2,7C-367,431.2-368.9,434.3-371.2,434.3z"/>
</svg>
