<?xml version="1.0" encoding="utf-8"?>
<!-- Generator: Adobe Illustrator 19.1.0, SVG Export Plug-In . SVG Version: 6.00 Build 0)  -->
<svg version="1.1" id="Layer_1" xmlns="http://www.w3.org/2000/svg" xmlns:xlink="http://www.w3.org/1999/xlink" x="0px" y="0px"
	 viewBox="-248 154.5 366.2 557.5" style="enable-background:new -248 154.5 366.2 557.5;" xml:space="preserve">
<style type="text/css">
	.st0{fill:#CCCCCC;}
</style>
<g>
	<path class="st0" d="M-189.7,166.1c0.1-0.1,0.2-0.1,0.3-0.2C-189.4,165.8-189.5,165.9-189.7,166.1z"/>
	<path class="st0" d="M-35.6,285.8c0.1,0,0.2,0.1,0.4,0.1C-35.2,285.9-35.3,285.9-35.6,285.8z"/>
	<path class="st0" d="M-166.8,174.7c0.1-0.1,0.2-0.1,0.2-0.2C-166.5,174.5-166.6,174.6-166.8,174.7z"/>
	<path class="st0" d="M-80.2,222.2c0.1,0,0.3,0,0.4,0C-79.8,222.2-79.9,222.2-80.2,222.2z"/>
	<path class="st0" d="M-66.8,244.5c0.1,0,0.2,0,0.3,0C-66.4,244.5-66.5,244.5-66.8,244.5z"/>
	<path class="st0" d="M-30.9,350.7c0.1,0.1,0.1,0.1,0.2,0.2C-30.7,350.9-30.8,350.8-30.9,350.7z"/>
	<path class="st0" d="M-58.9,445.4c0,0.1,0,0.3,0.1,0.4C-58.8,445.9-58.8,445.7-58.9,445.4z"/>
	<path class="st0" d="M-77.8,463.3c0,0.1,0,0.2,0,0.3C-77.8,463.7-77.8,463.6-77.8,463.3z"/>
	<path class="st0" d="M-141.9,544.3c0-0.2,0-0.4,0-0.6C-142,544.2-142,544.4-141.9,544.3z"/>
	<path class="st0" d="M-248,567.3c0-0.3,0-0.6,0-1C-248,567.1-248,567.4-248,567.3z"/>
	<g>
		<path class="st0" d="M-227.7,355.3c-2.9-4.9-3.4-12.4-3.5-13.4c-1.7-0.7-3.9-3.9-4.3-4.4c0.1,0.7,0.4,5.7,1.9,9.4
			c0.2,3.6-0.9,18.7,7.4,25.6C-221.8,366.6-226.9,356.9-227.7,355.3z"/>
		<path class="st0" d="M103.3,386.1c-3-2.5-8.2-12.7-8-13c-5.5-11.5-12.4-20.4-18.4-26.8c8.1,3.5,18.8,10.6,20.5,11.9
			c-5.1-4.7-5.8-4.5-9.4-12.9c-1.2-4.3-2.6-7.9-4.1-10.9c0.9,1,1.6,2,1.9,2.9c4.4,13.4,25,17.2,25,17.2
			c-10.7-2.7-8.7-10.1-21.1-27.3C80.9,315.1,68.1,308,61.2,305c0,0,0-0.1,0-0.1c10.2,4.8,31.1,1.8,31.3,0.8c-8,0.4-23.9-8.9-25-9.9
			c-2.2-1.7-4.5-3.2-6.8-4.5c11.6-0.9,29.2,1.3,32,1.8c-8.8-2.5-9.4-1.9-18.6-9.6c-8.6-9.6-16.3-14.3-23-16.3
			c3.6,0.1,6.3,0.3,6.6,0.2c6,2.2,23.8,0.1,20.3,0.1c-3.5,0-12.7-4.1-12.8-4.3c-9.3-4.3-18.2-6.5-25.6-7.7c-0.1-0.1-0.2-0.2-0.2-0.3
			c8.8-2.2,20.1-3.3,22.2-3.4c-7.4-0.4-7.8,0.2-16.4-4.2c-3.9-2.8-7.5-4.8-10.8-6.2c1.4,0.2,2.7,0.5,3.6,1.1
			c12.7,8,32.3-2.8,32.3-2.8c-10.6,5-14-2.5-35.9-8.2c-0.4-0.1-0.9-0.2-1.3-0.3c7.2-1.1,13.4-1.7,15.1-1.7
			c-9.7-0.5-10.2,0.3-21.6-5.6c-6.6-4.7-12.5-7.7-17.8-9.5c12.1,0.5,30.3-8.1,30.2-9c-8,2.8-27.2-1.7-28.6-2.3
			c-1.2-0.4-2.4-0.8-3.6-1.2c6-5.5,10.7-11.5,10.4-12c-4.7,4.8-18.1,8.4-23.2,9.4c-12.2-1.3-23,1-31.2,3.8c4.7-3.5,9.1-6.5,9.3-6.8
			c6.9-2.2,21.3-16.6,18.2-14.2c-3.1,2.4-14.2,5.3-14.4,5.1c-12.4,3-22.6,7.8-30.1,12.3c5.1-7.2,14.4-16.1,15.9-17.5
			c-5.7,4-5.6,4.7-14.6,6.4c-4.5,0.2-8.3,0.8-11.5,1.7c1.2-0.7,2.3-1.2,3.3-1.3c14-1.5,22.1-20.8,22.1-20.8
			c-4.9,9.8-11.8,6.3-31.2,14.8c-0.4,0.2-0.8,0.4-1.2,0.5c4.7-5,8.9-9,10.1-10c-7.5,5.3-7.4,6.1-19.2,8.5
			c-7.6,0.4-13.7,1.6-18.6,3.3c9.2-6.6,17.6-23.5,17-24.2c-4.3,6.7-21,14.6-22.4,14.9c-30.9,10.3-41,38.7-42.2,42.3
			c-13.2,6.8-29.7,20.4-38.7,40.7c0,0,1.9,8.9-2.4,13.7c-5.4,4.4-17,13.9-22.9,18.2c-6.6,4.1-35.8,20.7-33.3,31.4
			c0,0.1,0,0.1,0.1,0.2c0,0,7.8,1.3,10.8,0c0.4-0.2,1.3-0.4,4.9,2.1c3.1,1.9,9.8,2.1,12.1-0.8c1.5-1.8,3.8-2.7,4.3-0.8
			c0,1.2-0.1,7.2-15.5,11.6c-0.4,0.1-2.2,5.4-2.7,7.2c0.5,7.7,3.9,13.8,3.9,13.8c4.7,5,32.1,33.1,65.5,19.9c0.8-0.3,7,2.7,1.8,5.7
			c-3.3,0.9-32.5,12-62.3-18.8c1.2,5.2-2.3,12.6-2.3,12.6l-0.9,2c-1.1,10.3-1.8,41,31.4,32.3c7.5-2,10.1-5.3,15.1-7.9
			c14.4-7.4,24.3-9.7,40.5-11.4c11.3-3,26.1-10.5,31.5-28.8c-0.1,0.1-2.6,26.1-35.7,32.2c-5.1,4.7-13.5,14.9-18.3,34.4
			c-2.1,8.5-3.7,18.2-4.5,29c-1.6,23.6,1.1,52.8,12.6,87.4c1.5-3.6,0.1-21.7,12.1-38.4c1-1.4,1.9-2.8,2.9-4.2
			c2.4,6.3,5.6,12.9,9.5,19.9c11,28.4,9,29.3,7.9,52.4c1-6.8,9.5-47.7,20.4-75c-0.1,0.5-0.1,0.9-0.2,1.4
			c-7.4,43.6,34.6,91.8,34.6,91.8c-2.1-54.7,13.6-89.6,33-112.4c0.9,10.2,4.7,22.6,13.1,37.4c7.2,18.5,5.9,19.1,5.1,34.2
			c0.6-4.3,5.8-29.4,12.6-47.1c0.2,17.3,9.9,40.5,11.2,40.4c-3.6-11.8,4.3-39.3,5.3-41.3c5.7-13.7,7.7-26.9,7.7-38.9
			c0.9,6.9,1.5,12.4,1.7,12.8c-2.1,11,6.8,41.2,5.8,35.2c-1-6,3.3-23.2,3.8-23.3c4.3-16,5.7-30.8,5.8-43.3
			c4.8,8.1,9.6,22.8,10.2,25.1c-1.2-7.3-1.9-7.5,0.6-17c1.9-4.4,3.1-8.3,3.7-11.8c0.1,1.4,0.1,2.7-0.3,3.7
			c-5.1,14.1,9.6,30.9,9.6,30.9c-7.1-9.3-0.5-14.2,0.4-36.8c0-0.5,0-0.9,0-1.4c2.6,6.8,4.5,12.8,4.9,14.3c-1.6-9.6-2.4-9.9,0.8-22.3
			c3.2-7.4,4.9-13.9,5.5-19.4C77.8,423,90.1,439,91,438.7c-4.5-7.2-4.2-26.9-3.9-28.4c0.2-1.3,0.3-2.5,0.4-3.8
			c6.7,4.7,13.6,8,13.9,7.6c-5.7-3.6-12-15.9-14.2-20.6c-1.4-12.2-5.9-22.3-10.4-29.7c4.5,3.9,8.3,7.5,8.6,7.6
			C89.2,377.6,106.3,388.6,103.3,386.1z M-130.8,279.2c0,0.1-1,0.2-2.5,0.4c-0.6,1.3-3.9,2.7-8,3.3c-3.3,0.5-6.3,0.5-7.8-0.1
			c-4.7,2-11.8,5.4-19.3,8.6c0,0,11.5-7.8,15.1-14.2c1.2-1.6,2.8-3,4.5-3.8c-4.8-1.2-9.9-2.2-14.4-2.4c0.4-0.1,15.9-1.2,26,2.6
			c0.4,0.2,4.5,1.1,6.9,5.8C-130.3,279.4-130.5,279.3-130.8,279.2z"/>
	</g>
</g>
</svg>
